<?xml version="1.0" encoding="utf-8"?><svg xmlns="http://www.w3.org/2000/svg" xmlns:xlink="http://www.w3.org/1999/xlink" width="1920" height="969" preserveAspectRatio="xMidYMid" viewBox="0 0 1920 969" style="z-index:1;margin-right:-2px;display:block;background-repeat-y:initial;background-repeat-x:initial;background-color:rgb(255, 255, 255);animation-play-state:paused" ><g transform="translate(960,484.5) scale(1,1) translate(-960,-484.5)" style="transform:matrix(1, 0, 0, 1, 0, 0);animation-play-state:paused" ><linearGradient id="lg-0.968690810466688" x1="0" x2="1" y1="0" y2="0" style="animation-play-state:paused" ><stop stop-color="#ff00ff" offset="0" style="animation-play-state:paused" ></stop>

  
<stop stop-color="#00ffff" offset="1" style="animation-play-state:paused" ></stop></linearGradient>
<path d="M 0 0 L 0 837.632 Q 192 863.817 384 838.294 T 768 624.714 T 1152 642.281 T 1536 466.922 T 1920 385.39 L 1920 0 Z" fill="url(#lg-0.968690810466688)" opacity="0.4" style="opacity:0.4;animation-play-state:paused" ></path>
<path d="M 0 0 L 0 862.202 Q 192 842.559 384 800.836 T 768 646.018 T 1152 580.499 T 1536 612.47 T 1920 399.144 L 1920 0 Z" fill="url(#lg-0.968690810466688)" opacity="0.4" style="opacity:0.4;animation-play-state:paused" ></path>
<path d="M 0 0 L 0 874.828 Q 192 889.209 384 851.076 T 768 690.713 T 1152 577.967 T 1536 498.153 T 1920 301.581 L 1920 0 Z" fill="url(#lg-0.968690810466688)" opacity="0.4" style="opacity:0.4;animation-play-state:paused" ></path>
<path d="M 0 0 L 0 883.632 Q 192 765.209 384 748.527 T 768 634.417 T 1152 566.368 T 1536 462.611 T 1920 351.688 L 1920 0 Z" fill="url(#lg-0.968690810466688)" opacity="0.4" style="opacity:0.4;animation-play-state:paused" ></path>
<path d="M 0 0 L 0 857.215 Q 192 862.734 384 820.449 T 768 709.435 T 1152 546.237 T 1536 497.969 T 1920 352.871 L 1920 0 Z" fill="url(#lg-0.968690810466688)" opacity="0.4" style="opacity:0.4;animation-play-state:paused" ></path></g></svg>